<?xml version="1.0" encoding="utf-8"?>
<!-- Generator: Adobe Illustrator 24.0.2, SVG Export Plug-In . SVG Version: 6.00 Build 0)  -->
<svg version="1.1" id="re_1" xmlns="http://www.w3.org/2000/svg" xmlns:xlink="http://www.w3.org/1999/xlink" x="0px"
	 y="0px" viewBox="0 0 201.7 50" style="enable-background:new 0 0 201.7 50;" xml:space="preserve">
<style type="text/css">
	.st0{clip-path:url(#SVGID_2_);}
	.st1{fill:#EAEAEA;}
</style>
<title>logo</title>
<g id="re_2_1_">
	<g id="re_1-2">
		<path d="M66.4,9.5h12.5v2.6h-9.2v4h8.6v2.6h-8.6V25h-3.3V9.5z"/>
		<path d="M87.2,9.5V25h-3.3V9.5H87.2z"/>
		<path d="M95.3,20.4c0.5,1.5,1.7,2.6,4.4,2.6s3.5-0.9,3.5-2s-0.8-1.9-4.3-2.5c-5.2-0.9-6.2-2.5-6.2-4.6c0-3,2.9-4.6,6.4-4.6
			c5.2,0,6.6,2.7,6.8,4.4h-3.3c-0.3-0.9-0.8-2-3.6-2c-1.9,0-3,0.6-3,1.8c0,1,0.6,1.6,3.8,2.1c5.8,1,6.7,2.8,6.7,5
			c0,2.6-2.1,4.8-7.1,4.8c-4.7,0-6.9-2.1-7.4-4.9L95.3,20.4z"/>
		<path d="M112,9.5h7.8c3.7,0,5.9,1.9,5.9,4.8c0,3.1-2.2,5-5.9,5h-4.5v5.8H112V9.5z M115.3,16.7h4.2c1.8,0,2.9-0.6,2.9-2.4
			c0-1.4-0.9-2.3-2.9-2.3h-4.2V16.7z"/>
		<path d="M142.9,18.3H134v4.1h9.9l-0.4,2.6h-12.7V9.5h12.6v2.6H134v3.5h8.9L142.9,18.3z"/>
		<path d="M151.8,21.1l-1.6,3.9h-3.4l6.4-15.5h4.1l6.7,15.5h-3.5l-1.6-3.9H151.8z M158,18.5c-1.6-3.8-2.4-5.7-2.7-6.8l0,0
			c-0.3,1.1-1.2,3.6-2.5,6.8H158z"/>
		<path d="M183.2,20.2c-0.8,2.7-2.9,5.1-7.6,5.1c-5.4,0-8.1-3.8-8.1-8.1c-0.1-4.4,3.3-8,7.6-8.1c0.2,0,0.4,0,0.7,0
			c4.7,0,7,2.6,7.5,5.2h-3.3c-0.4-1.1-1.4-2.6-4.2-2.6c-3.1,0-4.8,2.4-4.8,5.4s1.6,5.6,4.9,5.6c2.4,0,3.5-1,4.2-2.6H183.2z"/>
		<path d="M200.6,18.3h-8.9v4.1h9.9l-0.4,2.6h-12.7V9.5h12.6v2.6h-9.4v3.5h8.9V18.3z"/>
		<path d="M65.8,31.4h7.7v1h-6.5V36H73v1h-6.1v4.6h-1.2V31.4z"/>
		<path d="M78,31.4v10.3h-1.2V31.4H78z"/>
		<path d="M82.7,38.7c0.4,1.3,1.3,2.2,3.4,2.2s3-0.9,3-1.9s-0.6-1.8-3.4-2.3c-3-0.5-3.7-1.4-3.7-2.8c0-1.8,1.7-2.8,3.8-2.8
			c3.3,0,4,1.7,4.2,2.7h-1.2c-0.2-0.8-0.7-1.8-3-1.8c-1.6,0-2.6,0.5-2.6,1.7c0,0.9,0.4,1.5,2.9,1.9c3.7,0.6,4.3,1.8,4.3,3.2
			c0,1.6-1.3,3-4.3,3c-2.8,0-4.3-1.3-4.6-3.2L82.7,38.7z"/>
		<path d="M93.9,31.4h1.2v4.3h6.6v-4.3h1.2v10.3h-1.2v-5h-6.6v5h-1.2V31.4z"/>
		<path d="M108.3,31.4v10.3h-1.2V31.4H108.3z"/>
		<path d="M112.5,41.7V31.4h1.4c2.2,2.9,6.1,7.9,6.7,8.9l0,0c-0.1-1.4-0.1-3-0.1-4.6v-4.3h1.1v10.3h-1.3c-1.7-2.2-5.9-7.9-6.7-9.1
			l0,0c0.1,1.3,0.1,2.8,0.1,4.6v4.5H112.5z"/>
		<path d="M135.4,41.7h-0.9c0-0.3-0.1-1.2-0.1-1.7c-0.7,1.2-1.8,1.9-3.8,1.9c-3.2,0-5.3-2.1-5.3-5.4c-0.1-2.9,2.1-5.3,4.9-5.4
			c0.2,0,0.3,0,0.5,0c3,0,4.3,1.5,4.7,3h-1.2c-0.4-1.1-1.4-2-3.5-2c-2.2-0.1-4.1,1.6-4.2,3.8c0,0.2,0,0.4,0,0.6
			c0,2.5,1.5,4.4,4.2,4.4c2.3,0,3.6-1.2,3.6-3.4v-0.3h-3.6v-1h4.7L135.4,41.7z"/>
		<path d="M145.4,38.7c0.4,1.3,1.3,2.2,3.5,2.2s3-0.9,3-1.9s-0.6-1.8-3.4-2.3c-3-0.5-3.7-1.4-3.7-2.8c0-1.8,1.6-2.8,3.9-2.8
			c3.3,0,4,1.7,4.2,2.7h-1.2c-0.2-0.8-0.7-1.8-3-1.8c-1.6,0-2.6,0.5-2.6,1.7c0,0.9,0.4,1.5,2.9,1.9c3.7,0.6,4.3,1.8,4.3,3.2
			c0,1.6-1.3,3-4.3,3c-2.8,0-4.2-1.3-4.6-3.2L145.4,38.7z"/>
		<path d="M156.7,31.4h4.7c2.6,0,3.7,1.4,3.7,3c0,2-1.4,3.1-3.6,3.1h-3.6v4.3h-1.2L156.7,31.4z M157.8,36.3h3.4c1.5,0,2.6-0.4,2.6-2
			c0-1.3-0.9-2-2.6-2h-3.4V36.3z"/>
		<path d="M169.9,38.3l-1.4,3.3h-1.2l4.5-10.3h1.4l4.7,10.3h-1.3l-1.5-3.3H169.9z M174.6,37.3c-1.4-3-2-4.4-2.2-5l0,0
			c-0.2,0.7-1,2.5-2.1,5H174.6z"/>
		<path d="M190.1,38.7c-0.6,1.8-1.9,3.2-4.7,3.2c-2.8,0.1-5.1-2-5.2-4.7c0-0.2,0-0.4,0-0.6c-0.1-2.9,2.1-5.3,4.9-5.4
			c0.1,0,0.2,0,0.4,0c2.9,0,4.3,1.6,4.7,3.2h-1.2c-0.5-1.5-2-2.4-3.5-2.2c-2.5,0-4,1.8-4,4.3s1.6,4.4,4.1,4.4c1.5,0.2,3-0.7,3.5-2.2
			H190.1z"/>
		<path d="M201.1,36.7h-6.3v3.9h6.9l-0.2,1h-7.9V31.4h7.8v1h-6.6v3.4h6.3V36.7z"/>
		<rect width="48.9" height="50"/>
		<g>
			<defs>
				<rect id="SVGID_1_" width="48.9" height="50"/>
			</defs>
			<clipPath id="SVGID_2_">
				<use xlink:href="#SVGID_1_"  style="overflow:visible;"/>
			</clipPath>
			<g class="st0">
				<path class="st1" d="M-2,9.2c-1.1-0.6-2-1.4-2.7-2.4L-5.9,5l-1.2,1.8c-0.7,1-1.6,1.9-2.7,2.4c-1.1,0.6-2.4,0.9-3.7,0.9
					c-1.3,0-2.5-0.3-3.7-0.9c-1.1-0.6-2-1.4-2.7-2.4L-21.2,5l-1.2,1.8c-0.7,1-1.6,1.9-2.7,2.4c-1.1,0.6-2.4,0.9-3.7,0.9
					c-1.3,0-2.5-0.3-3.7-0.9c-1.1-0.6-2-1.4-2.7-2.4L-36.4,5l-1.2,1.8c-0.7,1-1.6,1.9-2.7,2.4c-1.1,0.6-2.4,0.9-3.7,0.9v3
					c1.8,0,3.5-0.4,5-1.3c0.9-0.5,1.8-1.1,2.6-1.9c0.8,0.8,1.6,1.4,2.5,1.9c1.6,0.8,3.3,1.3,5.1,1.3c1.8,0,3.5-0.4,5.1-1.3
					c0.9-0.5,1.8-1.1,2.5-1.9c0.8,0.8,1.6,1.4,2.5,1.9c1.6,0.8,3.3,1.3,5.1,1.3c1.8,0,3.5-0.4,5.1-1.3c0.9-0.5,1.8-1.1,2.5-1.9
					c0.8,0.8,1.6,1.4,2.5,1.9c1.6,0.8,3.3,1.3,5.1,1.2v-3C0.4,10.2-0.9,9.8-2,9.2z"/>
				<path class="st1" d="M-4.7,22.7l-1.2-1.8l-1.2,1.8c-0.7,1-1.6,1.9-2.7,2.4c-1.1,0.6-2.4,0.9-3.7,0.9c-1.3,0-2.5-0.3-3.7-0.9
					c-1.1-0.6-2-1.4-2.7-2.4l-1.2-1.8l-1.2,1.8c-0.7,1-1.6,1.9-2.7,2.4c-1.1,0.6-2.4,0.9-3.7,0.9c-1.3,0-2.5-0.3-3.7-0.9
					c-1.1-0.6-2-1.4-2.7-2.4l-1.2-1.8l-1.2,1.8c-0.7,1-1.6,1.9-2.7,2.4c-1.1,0.6-2.4,0.9-3.7,0.9v3c1.8,0,3.5-0.4,5-1.3
					c0.9-0.5,1.8-1.1,2.5-1.9c0.8,0.8,1.6,1.4,2.5,1.9c1.6,0.8,3.3,1.3,5.1,1.3c1.8,0,3.5-0.4,5.1-1.3c0.9-0.5,1.8-1.1,2.5-1.9
					c0.8,0.8,1.6,1.4,2.5,1.9c1.6,0.8,3.3,1.3,5.1,1.3c1.8,0,3.5-0.4,5.1-1.3c0.9-0.5,1.8-1.1,2.5-1.9c0.8,0.8,1.6,1.4,2.5,1.9
					c1.6,0.8,3.3,1.3,5.1,1.3v-3c-1.3,0-2.6-0.3-3.7-0.9C-3.1,24.6-4,23.7-4.7,22.7z"/>
				<path class="st1" d="M-4.7,38.6l-1.2-1.8l-1.2,1.8c-0.7,1-1.6,1.9-2.7,2.5c-1.1,0.6-2.4,0.9-3.7,0.9c-1.3,0-2.5-0.3-3.7-0.9
					c-1.1-0.6-2-1.4-2.7-2.5l-1.2-1.8l-1.2,1.8c-0.7,1-1.6,1.9-2.7,2.5c-1.1,0.6-2.4,0.9-3.7,0.9c-1.3,0-2.5-0.3-3.7-0.9
					c-1.1-0.6-2-1.4-2.7-2.5l-1.2-1.8l-1.2,1.8c-0.7,1-1.6,1.9-2.7,2.5c-1.1,0.6-2.4,0.9-3.6,0.9v3c1.7,0,3.5-0.4,5-1.3
					c0.9-0.5,1.8-1.1,2.5-1.9c0.8,0.8,1.6,1.4,2.5,1.9c1.6,0.9,3.3,1.3,5.1,1.3c1.8,0,3.5-0.4,5.1-1.3c0.9-0.5,1.8-1.1,2.5-1.9
					c0.7,0.8,1.6,1.4,2.5,1.9c1.6,0.8,3.3,1.3,5.1,1.3c1.8,0,3.5-0.4,5.1-1.3c0.9-0.5,1.8-1.1,2.5-1.9c2,2,4.8,3.2,7.6,3.2v-3
					c-1.3,0-2.6-0.3-3.7-0.9C-3.1,40.5-4,39.7-4.7,38.6z"/>
				<path class="st1" d="M43,9.2c-1.1-0.6-2-1.4-2.7-2.4L39.1,5l-1.2,1.8c-0.7,1-1.6,1.9-2.7,2.4c-2.3,1.2-5,1.2-7.3,0
					c-1.1-0.6-2-1.4-2.7-2.4L23.8,5l-1.2,1.8c-0.7,1-1.6,1.9-2.7,2.4c-1.1,0.6-2.4,0.9-3.7,0.9c-1.3,0-2.5-0.3-3.7-0.9
					c-1.1-0.6-2-1.4-2.7-2.4L8.6,5L7.3,6.8c-0.7,1-1.6,1.9-2.7,2.4C3.5,9.8,2.3,10.1,1,10.1v3c1.7,0,3.5-0.5,5-1.3
					c0.9-0.5,1.8-1.1,2.6-1.9c0.8,0.8,1.6,1.4,2.6,1.9c1.6,0.8,3.3,1.3,5.1,1.3c1.8,0,3.5-0.4,5.1-1.3c0.9-0.5,1.8-1.1,2.5-1.9
					c0.8,0.8,1.6,1.4,2.5,1.9c3.2,1.7,7,1.7,10.2,0c0.9-0.5,1.8-1.1,2.5-1.9c0.8,0.8,1.6,1.4,2.5,1.9c1.6,0.8,3.3,1.3,5.1,1.3v-3
					C45.4,10.2,44.1,9.9,43,9.2z"/>
				<path class="st1" d="M40.3,22.7l-1.2-1.8l-1.2,1.8c-0.7,1-1.6,1.9-2.7,2.4c-2.3,1.2-5,1.2-7.3,0c-1.1-0.6-2-1.4-2.7-2.4
					l-1.2-1.8l-1.2,1.8c-0.7,1-1.6,1.9-2.7,2.4c-2.3,1.2-5,1.2-7.3,0c-1.1-0.6-2-1.4-2.7-2.4l-1.2-1.8l-1.2,1.8
					c-0.7,1-1.6,1.9-2.7,2.4c-1.1,0.6-2.4,0.9-3.6,0.9v3c1.7,0,3.5-0.5,5-1.3c0.9-0.5,1.8-1.1,2.5-1.9c0.8,0.8,1.6,1.4,2.6,1.9
					c4.2,2.3,9.4,1.5,12.7-1.9c0.8,0.8,1.6,1.4,2.5,1.9c3.2,1.7,7,1.7,10.2,0c0.9-0.5,1.8-1.1,2.5-1.9c0.8,0.8,1.6,1.4,2.5,1.9
					c1.6,0.8,3.3,1.3,5.1,1.3v-3c-1.3,0-2.5-0.3-3.7-0.9C41.9,24.6,41,23.7,40.3,22.7z"/>
				<path class="st1" d="M40.3,38.6l-1.2-1.8l-1.2,1.8c-0.7,1-1.6,1.9-2.7,2.5c-2.3,1.2-5,1.2-7.3,0c-1.1-0.6-2-1.4-2.7-2.5
					l-1.2-1.8l-1.2,1.8c-0.7,1-1.6,1.9-2.7,2.5c-3.5,1.8-7.8,0.8-10-2.5l-1.3-1.8l-1.2,1.8c-0.7,1-1.6,1.9-2.7,2.5
					C3.5,41.7,2.3,42,1,42v3c1.7,0,3.5-0.4,5-1.3c0.9-0.5,1.8-1.1,2.5-1.9c0.8,0.8,1.6,1.4,2.6,1.9c3.2,1.7,7,1.7,10.2,0
					c0.9-0.5,1.8-1.1,2.5-1.9c4.2,4.2,11,4.2,15.2,0c0,0,0,0,0,0c2,2,4.8,3.2,7.7,3.2v-3c-1.3,0-2.6-0.3-3.7-0.9
					C41.9,40.5,41,39.7,40.3,38.6z"/>
				<path class="st1" d="M88,9.2c-1.1-0.6-2-1.4-2.7-2.4L84.1,5l-1.2,1.8c-0.7,1-1.6,1.9-2.7,2.4c-2.3,1.2-5,1.2-7.3,0
					c-1.1-0.6-2-1.4-2.7-2.4L68.8,5l-1.2,1.8c-0.7,1-1.6,1.9-2.7,2.4c-1.1,0.6-2.4,0.9-3.7,0.9c-1.3,0-2.5-0.3-3.7-0.9
					c-1.1-0.6-2-1.4-2.7-2.4L53.6,5l-1.2,1.8c-0.7,1-1.6,1.9-2.7,2.4c-1.1,0.6-2.4,0.9-3.7,0.9v3c1.8,0,3.5-0.4,5-1.3
					c0.9-0.5,1.8-1.1,2.6-1.9c0.8,0.8,1.6,1.4,2.5,1.9c1.6,0.8,3.3,1.3,5.1,1.3c1.8,0,3.5-0.4,5.1-1.3c0.9-0.5,1.8-1.1,2.5-1.9
					c0.8,0.8,1.6,1.4,2.5,1.9c3.2,1.7,7,1.7,10.2,0c0.9-0.5,1.8-1.1,2.5-1.9c0.8,0.8,1.6,1.4,2.5,1.9c1.6,0.8,3.3,1.3,5.1,1.3v-3
					C90.4,10.2,89.1,9.9,88,9.2z"/>
				<path class="st1" d="M85.3,22.7l-1.2-1.8l-1.2,1.8c-0.7,1-1.6,1.9-2.7,2.4c-2.3,1.2-5,1.2-7.3,0c-1.1-0.6-2-1.4-2.7-2.4
					l-1.2-1.8l-1.2,1.8c-0.7,1-1.6,1.9-2.7,2.4c-2.3,1.2-5,1.2-7.3,0c-1.1-0.6-2-1.4-2.7-2.4l-1.2-1.8l-1.2,1.8
					c-0.7,1-1.6,1.9-2.7,2.4c-1.1,0.6-2.4,0.9-3.7,0.9v3c2.9,0,5.6-1.1,7.6-3.2c0.8,0.8,1.6,1.4,2.5,1.9c4.2,2.3,9.4,1.5,12.7-1.9
					c0.8,0.8,1.6,1.4,2.5,1.9c3.2,1.7,7,1.7,10.2,0c0.9-0.5,1.8-1.1,2.5-1.9c0.8,0.8,1.6,1.4,2.5,1.9c1.6,0.8,3.3,1.3,5.1,1.3v-3
					c-1.3,0-2.6-0.3-3.7-0.9C86.9,24.6,86,23.7,85.3,22.7z"/>
				<path class="st1" d="M85.3,38.6l-1.2-1.8l-1.2,1.8c-0.7,1-1.6,1.9-2.7,2.5c-2.3,1.2-5,1.2-7.3,0c-1.1-0.6-2-1.4-2.7-2.5
					l-1.2-1.8l-1.2,1.8c-0.7,1-1.6,1.9-2.7,2.5c-3.5,1.9-7.8,0.8-10-2.5l-1.2-1.8l-1.2,1.8c-0.7,1-1.6,1.9-2.7,2.5
					C48.5,41.7,47.3,42,46,42v3c1.7,0,3.5-0.4,5-1.3c0.9-0.5,1.8-1.1,2.5-1.9c0.8,0.8,1.6,1.4,2.5,1.9c4.2,2.2,9.3,1.5,12.7-1.9
					c4.2,4.2,11,4.2,15.2,0c0,0,0,0,0,0c2,2,4.8,3.2,7.7,3.2v-3c-1.3,0-2.6-0.3-3.7-0.9C86.9,40.5,86,39.7,85.3,38.6z"/>
				<path class="st1" d="M133,9.2c-1.1-0.6-2-1.4-2.7-2.4L129.1,5l-1.2,1.8c-0.7,1-1.6,1.9-2.7,2.4c-2.3,1.2-5,1.2-7.3,0
					c-1.1-0.6-2-1.4-2.7-2.4L113.8,5l-1.2,1.8c-0.7,1-1.6,1.9-2.7,2.4c-1.1,0.6-2.4,0.9-3.7,0.9c-1.3,0-2.5-0.3-3.7-0.9
					c-1.1-0.6-2-1.4-2.7-2.4L98.6,5l-1.2,1.8c-0.7,1-1.6,1.9-2.7,2.4c-1.1,0.6-2.4,0.9-3.7,0.9v3c1.8,0,3.5-0.4,5-1.3
					c0.9-0.5,1.8-1.1,2.6-1.9c0.8,0.8,1.6,1.4,2.6,1.9c1.6,0.8,3.3,1.3,5.1,1.3c1.8,0,3.5-0.4,5.1-1.3c0.9-0.5,1.8-1.1,2.5-1.9
					c0.8,0.8,1.6,1.4,2.5,1.9c3.2,1.7,7,1.7,10.2,0c0.9-0.5,1.8-1.1,2.5-1.9c0.8,0.8,1.6,1.4,2.5,1.9c1.6,0.8,3.3,1.3,5.1,1.3v-3
					C135.4,10.2,134.1,9.9,133,9.2z"/>
				<path class="st1" d="M130.3,22.7l-1.2-1.8l-1.2,1.8c-0.7,1-1.6,1.9-2.7,2.4c-2.3,1.2-5,1.2-7.3,0c-1.1-0.6-2-1.4-2.7-2.4
					l-1.2-1.8l-1.2,1.8c-0.7,1-1.6,1.9-2.7,2.4c-2.3,1.2-5,1.2-7.3,0c-1.1-0.6-2-1.4-2.7-2.4l-1.2-1.8l-1.2,1.8
					c-0.7,1-1.6,1.9-2.7,2.4c-1.1,0.6-2.4,0.9-3.7,0.9v3c2.9,0,5.6-1.1,7.6-3.2c0.8,0.8,1.6,1.4,2.6,1.9c4.2,2.3,9.4,1.5,12.7-1.9
					c0.8,0.8,1.6,1.4,2.5,1.9c3.2,1.7,7,1.7,10.2,0c0.9-0.5,1.8-1.1,2.5-1.9c0.8,0.8,1.6,1.4,2.5,1.9c1.6,0.8,3.3,1.3,5.1,1.3v-3
					c-1.3,0-2.5-0.3-3.7-0.9C132,24.6,131,23.7,130.3,22.7z"/>
				<path class="st1" d="M130.3,38.6l-1.2-1.8l-1.2,1.8c-0.7,1-1.6,1.9-2.7,2.5c-2.3,1.2-5,1.2-7.3,0c-1.1-0.6-2-1.4-2.7-2.5
					l-1.2-1.8l-1.2,1.8c-0.7,1-1.6,1.9-2.7,2.5c-3.5,1.9-7.8,0.8-10.1-2.5l-1.2-1.8l-1.2,1.8c-0.7,1-1.6,1.9-2.7,2.5
					C93.5,41.7,92.3,42,91,42v3c1.7,0,3.5-0.4,5-1.3c0.9-0.5,1.8-1.1,2.5-1.9c0.8,0.8,1.6,1.4,2.6,1.9c4.2,2.2,9.3,1.5,12.7-1.9
					c4.2,4.2,11,4.2,15.2,0c0,0,0,0,0,0c2,2,4.8,3.2,7.7,3.2v-3c-1.3,0-2.5-0.3-3.7-0.9C131.9,40.5,131,39.7,130.3,38.6z"/>
			</g>
		</g>
	</g>
</g>
</svg>
